<svg width="12" height="13" viewBox="0 0 12 24" fill="none" xmlns="http://www.w3.org/2000/svg">
    <path id="Vector"
          d="M11.8534 11.421L8.4409 8.00848C9.1019 7.19199 9.49989 6.15448 9.49989 5.02449C9.49989 2.40549 7.3689 0.274483 4.74993 0.274483C2.13096 0.274483 0 2.40547 0 5.02447C0 7.64347 2.13098 9.77448 4.74996 9.77448C5.87994 9.77448 6.91743 9.37648 7.73392 8.71548L11.1464 12.128C11.2439 12.2255 11.3719 12.2745 11.4999 12.2745C11.6279 12.2745 11.7559 12.2255 11.8534 12.128C12.0489 11.9325 12.0489 11.6165 11.8534 11.421ZM4.74996 8.77447C2.68197 8.77447 0.999997 7.09247 0.999997 5.02447C0.999997 2.95646 2.68197 1.27447 4.74996 1.27447C6.81794 1.27447 8.49991 2.95646 8.49991 5.02447C8.49991 7.09247 6.81792 8.77447 4.74996 8.77447Z"
          fill="#CBCBCB"/>
</svg>
